<svg data-v-1084b650="" xmlns="http://www.w3.org/2000/svg" viewBox="0 0 300 300"><!----> <!----> <rect data-v-1084b650="" fill="#F56B11" x="0" y="0" width="300px" height="300px" class="logo-background-square"></rect> <!----> <g data-v-1084b650="" id="a5d1612b-5a3c-cdcc-14f5-a998a4e323e3" fill="#ffffff" transform="matrix(1.9000000000000001,0,0,1.9000000000000001,96.01345627605915,130.39200842380524)"><path d="M0.46 13.82L8.29 13.82L8.46 10.91L7.92 10.91C7.42 12.40 7.18 13.17 5.53 13.17C4.24 13.17 3.81 13.05 3.81 12.15L3.81 9.10L5.14 9.10C6.02 9.10 6.20 9.34 6.43 10.36L6.96 10.36L6.96 7.11L6.43 7.11C6.20 8.13 6.02 8.37 5.14 8.37L3.81 8.37L3.81 5.28C3.81 4.87 3.91 4.77 4.30 4.77L5.35 4.77C6.79 4.77 7.04 5.33 7.48 6.72L8.01 6.72L8.01 4.13L0.46 4.13L0.46 4.66C1.46 4.70 1.57 4.77 1.57 5.49L1.57 12.46C1.57 13.17 1.46 13.24 0.46 13.29ZM11.54 11.72C11.54 11.06 11.76 10.74 12.18 10.50C12.61 10.26 13.10 10.07 13.44 9.91L13.44 11.94C13.41 12.70 12.95 12.89 12.57 12.89C12.03 12.89 11.54 12.46 11.54 11.72ZM9.38 11.96C9.38 13.01 10.08 13.99 11.49 13.99C12.39 13.99 13.01 13.50 13.50 13.17C13.68 13.61 13.92 13.99 14.59 13.99C15.32 13.99 16.20 13.75 16.66 13.57L16.62 13.10C16.44 13.12 16.16 13.10 15.95 13.03C15.76 12.98 15.50 12.81 15.50 11.98L15.50 8.75C15.50 7.88 15.36 6.79 12.88 6.79C10.82 6.79 9.56 7.60 9.56 8.51C9.56 9.14 10.46 9.39 10.82 9.39C11.13 9.39 11.28 9.17 11.40 8.83C11.79 7.64 12.24 7.43 12.63 7.43C13.03 7.43 13.44 7.67 13.44 8.47L13.44 9.21C12.95 9.55 11.77 9.90 10.86 10.21C9.76 10.58 9.38 11.16 9.38 11.96ZM16.95 11.23L17.12 13.31C17.65 13.80 18.70 13.99 19.49 13.99C21.20 13.99 22.37 13.22 22.37 11.70C22.37 10.50 21.62 9.93 20.33 9.44C19.52 9.14 18.91 8.81 18.91 8.25C18.91 7.81 19.22 7.43 19.80 7.43C20.51 7.43 21.11 8.08 21.38 9.14L21.90 9.14L21.90 7.28C21.32 6.93 20.52 6.79 19.80 6.79C18.09 6.79 17.02 7.59 17.02 9.00C17.02 10.02 17.85 10.70 19.08 11.16C19.80 11.41 20.48 11.82 20.48 12.49C20.48 13.02 20.13 13.34 19.52 13.34C18.59 13.34 17.85 12.38 17.49 11.23ZM22.50 7.49L22.96 7.56C23.17 7.60 23.34 7.76 23.49 8.13C24.30 10.08 25.14 12.15 25.89 14.08C26.00 14.36 26.04 14.73 25.97 15.01C25.89 15.33 25.76 15.69 25.42 15.69C25.27 15.69 25.09 15.62 24.92 15.48C24.65 15.29 24.53 15.19 24.29 15.19C23.84 15.19 23.39 15.79 23.39 16.32C23.39 16.87 24.00 17.21 24.53 17.21C25.49 17.21 26.14 16.67 26.89 14.66C27.71 12.49 28.55 10.43 29.37 8.43C29.62 7.83 29.78 7.56 30.17 7.52L30.46 7.49L30.46 6.96L27.65 6.96L27.65 7.49L28.22 7.57C28.42 7.60 28.50 7.73 28.43 7.99C28.04 9.32 27.59 10.63 27.16 11.94L27.13 11.94C26.67 10.65 26.15 9.35 25.72 8.04C25.62 7.76 25.66 7.60 25.89 7.57L26.42 7.49L26.42 6.96L22.50 6.96ZM33.40 13.82L41.23 13.82L41.40 10.91L40.87 10.91C40.36 12.40 40.12 13.17 38.47 13.17C37.18 13.17 36.75 13.05 36.75 12.15L36.75 9.10L38.08 9.10C38.96 9.10 39.14 9.34 39.37 10.36L39.90 10.36L39.90 7.11L39.37 7.11C39.14 8.13 38.96 8.37 38.08 8.37L36.75 8.37L36.75 5.28C36.75 4.87 36.85 4.77 37.24 4.77L38.29 4.77C39.73 4.77 39.98 5.33 40.42 6.72L40.95 6.72L40.95 4.13L33.40 4.13L33.40 4.66C34.40 4.70 34.51 4.77 34.51 5.49L34.51 12.46C34.51 13.17 34.40 13.24 33.40 13.29ZM41.54 13.82L44.63 13.82L44.63 13.29L44.14 13.22C43.92 13.19 43.86 13.05 44.03 12.80L45.00 11.28L45.02 11.28L46.05 12.85C46.20 13.09 46.10 13.22 45.86 13.24L45.56 13.29L45.56 13.82L49.45 13.82L49.45 13.29C48.85 13.24 48.62 13.12 48.22 12.60C47.54 11.69 46.89 10.74 46.23 9.77C46.76 9.06 47.28 8.48 47.77 7.98C48.10 7.64 48.40 7.50 48.97 7.49L48.97 6.96L46.20 6.96L46.20 7.49L46.56 7.53C46.76 7.56 46.80 7.69 46.63 7.92L45.79 9.17L45.77 9.17L44.90 7.84C44.80 7.70 44.81 7.57 44.98 7.55L45.30 7.49L45.30 6.96L41.66 6.96L41.66 7.49C42.28 7.56 42.42 7.63 42.70 8.01C43.27 8.78 43.86 9.70 44.56 10.64C44.02 11.33 43.51 11.98 42.97 12.60C42.52 13.10 42.27 13.20 41.54 13.29ZM49.53 10.44C49.53 12.80 50.85 13.99 52.82 13.99C53.98 13.99 55.29 13.59 55.83 11.86L55.34 11.63C54.87 12.59 54.32 12.91 53.55 12.91C52.64 12.91 51.76 12.29 51.76 10.11C51.76 8.23 52.36 7.43 52.95 7.43C53.44 7.43 53.68 7.87 53.91 8.71C54.01 9.03 54.22 9.20 54.59 9.20C55.08 9.20 55.75 8.95 55.75 8.33C55.75 7.34 54.35 6.79 53.07 6.79C51.98 6.79 51.11 7.10 50.48 7.73C49.90 8.32 49.53 9.23 49.53 10.44ZM56.24 13.82L60.00 13.82L60.00 13.29L59.71 13.26C59.42 13.23 59.26 13.16 59.26 12.70L59.26 9.38C59.26 9.07 59.30 8.75 59.40 8.55C59.58 8.19 59.96 7.87 60.55 7.87C61.26 7.87 61.66 8.33 61.66 9.17L61.66 12.70C61.66 13.16 61.50 13.23 61.21 13.26L60.91 13.29L60.91 13.82L64.68 13.82L64.68 13.29C63.88 13.24 63.77 13.19 63.77 12.60L63.77 8.96C63.77 7.64 63.10 6.79 61.63 6.79C60.79 6.79 60.13 7.21 59.26 7.76L59.26 3.51L59.16 3.43L56.32 3.81L56.32 4.31L56.81 4.40C57.04 4.44 57.15 4.56 57.15 5.12L57.15 12.60C57.15 13.19 57.04 13.24 56.24 13.29ZM67.54 11.72C67.54 11.06 67.76 10.74 68.18 10.50C68.61 10.26 69.10 10.07 69.44 9.91L69.44 11.94C69.41 12.70 68.95 12.89 68.57 12.89C68.03 12.89 67.54 12.46 67.54 11.72ZM65.38 11.96C65.38 13.01 66.08 13.99 67.49 13.99C68.39 13.99 69.01 13.50 69.50 13.17C69.68 13.61 69.92 13.99 70.59 13.99C71.32 13.99 72.20 13.75 72.66 13.57L72.62 13.10C72.44 13.12 72.16 13.10 71.95 13.03C71.76 12.98 71.50 12.81 71.50 11.98L71.50 8.75C71.50 7.88 71.36 6.79 68.88 6.79C66.82 6.79 65.56 7.60 65.56 8.51C65.56 9.14 66.46 9.39 66.82 9.39C67.13 9.39 67.28 9.17 67.40 8.83C67.79 7.64 68.24 7.43 68.63 7.43C69.03 7.43 69.44 7.67 69.44 8.47L69.44 9.21C68.95 9.55 67.77 9.90 66.86 10.21C65.76 10.58 65.38 11.16 65.38 11.96ZM72.79 13.82L76.55 13.82L76.55 13.29L76.26 13.26C75.96 13.23 75.81 13.16 75.81 12.70L75.81 9.38C75.81 9.07 75.85 8.75 75.95 8.55C76.13 8.19 76.51 7.87 77.10 7.87C77.81 7.87 78.18 8.30 78.20 9.14L78.20 12.70C78.20 13.16 78.05 13.23 77.76 13.26L77.46 13.29L77.46 13.82L81.23 13.82L81.23 13.29C80.43 13.24 80.32 13.19 80.32 12.60L80.32 8.95C80.30 7.63 79.65 6.79 78.20 6.79C77.39 6.79 76.73 7.21 75.81 7.76L75.63 6.79L72.87 7.20L72.87 7.70L73.36 7.77C73.58 7.80 73.70 7.92 73.70 8.48L73.70 12.60C73.70 13.19 73.58 13.24 72.79 13.29ZM84.01 9.13C84.01 7.94 84.52 7.43 85.08 7.43C85.62 7.43 86.11 7.94 86.11 9.11C86.11 10.11 85.71 10.74 85.06 10.74C84.46 10.74 84.01 10.09 84.01 9.13ZM83.59 15.02C83.59 14.63 83.75 14.39 83.94 14.25C84.14 14.13 84.56 14.04 85.18 14.04C86.37 14.04 87.11 14.31 87.11 15.16C87.11 16.16 86.31 16.56 85.37 16.56C84.43 16.56 83.59 16.02 83.59 15.02ZM81.70 15.16C81.70 16.53 83.16 17.21 85.16 17.21C85.78 17.21 86.80 17.07 87.50 16.69C88.27 16.28 88.80 15.55 88.80 14.55C88.80 12.87 87.50 12.35 86.03 12.35L84.73 12.35C84.04 12.35 83.79 12.12 83.79 11.87C83.79 11.56 84.15 11.40 84.35 11.35C84.62 11.38 84.83 11.38 84.99 11.38C86.65 11.38 88.12 10.78 88.12 9.11C88.12 8.69 87.98 8.26 87.79 8.02L88.72 7.85L89.00 6.80L88.84 6.65L87.09 7.25C86.63 6.99 85.85 6.79 85.09 6.79C82.57 6.79 81.83 8.08 81.83 9.17C81.83 10.33 82.68 11.03 83.54 11.17L83.54 11.20C82.63 11.42 82.04 11.93 82.04 12.49C82.04 13.10 82.71 13.66 83.33 13.80L83.33 13.83C82.74 13.96 81.70 14.22 81.70 15.16ZM91.52 9.62C91.52 8.61 91.78 7.43 92.69 7.43C93.55 7.43 93.69 8.50 93.69 9.16C93.69 9.53 93.58 9.62 93.25 9.62ZM89.29 10.39C89.29 12.29 90.12 13.99 92.72 13.99C94.39 13.99 95.30 13.17 95.77 11.94L95.27 11.66C94.85 12.46 94.25 12.91 93.39 12.91C91.99 12.91 91.52 11.76 91.52 10.29L95.13 10.29C95.63 10.29 95.89 10.15 95.89 9.70C95.89 8.55 95.45 6.79 92.75 6.79C90.23 6.79 89.29 8.43 89.29 10.39Z"></path></g> <!----> <g data-v-1084b650="" id="25ec4ce2-861d-84cf-5afe-27da1d60572d" stroke="none" fill="#FFFFFF" transform="matrix(0.22727428140862285,0,0,0.22727428140862285,30.45596687009028,115.77249356665443)"><svg xmlns="http://www.w3.org/2000/svg" xmlns:xlink="http://www.w3.org/1999/xlink" version="1.1" x="0px" y="0px" viewBox="0 0 100 100" enable-background="new 0 0 100 100" xml:space="preserve"><g><g><ellipse fill-rule="evenodd" clip-rule="evenodd" cx="42.8" cy="38.201" rx="9.6" ry="4.8"></ellipse><path fill-rule="evenodd" clip-rule="evenodd" d="M21.2,47.8v-19.2H62v7.2v4.8c0,0-0.149-7.2,7.199-7.2v-4.8    c0-7.2-7.199-7.2-7.199-7.2s-32.475,0-40.8,0c-7.2,0-7.2,7.2-7.2,7.2s0,25.499,0,31.2v12c0,0,0,7.199,7.2,7.199    c8.85,0,28.8,0,28.8,0v-7.199H21.2v-4.8H50v-7.2H21.2V55H50c0-4.8,4.8-7.2,4.8-7.2H21.2z"></path><path fill-rule="evenodd" clip-rule="evenodd" d="M83.6,47.8c0,0-2.324,2.4-7.2,2.4V55c0,0,9.601-0.148,9.601-4.8    C86,47.8,83.6,47.8,83.6,47.8z"></path><path fill-rule="evenodd" clip-rule="evenodd" d="M83.6,57.4c0,0-2.324,2.4-7.2,2.4v4.8c0,0,9.601-0.15,9.601-4.8    C86,57.4,83.6,57.4,83.6,57.4z"></path><path fill-rule="evenodd" clip-rule="evenodd" d="M83.6,67.001c0,0-2.324,2.399-7.2,2.399v4.801c0,0,9.601-0.15,9.601-4.801    C86,67.001,83.6,67.001,83.6,67.001z"></path><ellipse fill-rule="evenodd" clip-rule="evenodd" cx="76.4" cy="40.6" rx="9.6" ry="4.8"></ellipse><path fill-rule="evenodd" clip-rule="evenodd" d="M71.6,62.2c0,0-2.324,2.4-7.199,2.4c-4.876,0-7.2-2.4-7.2-2.4s-2.4,0-2.4,2.4    c0,4.65,9.601,4.8,9.601,4.8s9.6-0.149,9.6-4.8C74,62.2,71.6,62.2,71.6,62.2z"></path><path fill-rule="evenodd" clip-rule="evenodd" d="M71.6,71.801c0,0-2.324,2.4-7.199,2.4c-4.876,0-7.2-2.4-7.2-2.4s-2.4,0-2.4,2.4    C54.8,78.85,64.4,79,64.4,79s9.6-0.15,9.6-4.799C74,71.801,71.6,71.801,71.6,71.801z"></path><ellipse fill-rule="evenodd" clip-rule="evenodd" cx="64.4" cy="55" rx="9.601" ry="4.8"></ellipse></g></g></svg></g></svg>